<svg xmlns="http://www.w3.org/2000/svg" viewBox="0 0 630 630">
  <rect width="630" height="630" fill="#f7df1e" />
  <path d="m423.2 492.19c12.69 20.72 29.2 35.95 58.4 35.95 24.53 0 40.2-12.26 40.2-29.2 0-20.3-16.1-27.49-43.1-39.3l-14.8-6.35c-42.72-18.2-71.1-41-71.1-89.2 0-44.4 33.83-78.2 86.7-78.2 37.64 0 64.7 13.1 84.2 47.4l-46.1 29.6c-10.15-18.2-21.1-25.37-38.1-25.37-17.34 0-28.33 9.3-28.33 22.38 0 16.1 10.15 22.38 35.4 33.38l15.8 6.78c54.54 23.28 82.4 46.95 82.4 96.05 0 54.54-44.5 88.5-105.3 88.5-61.63 0-97.2-27.7-114.8-62.5zm-252.3 0c11.35 20.3 27.63 35.4 56.56 35.4 26.6 0 44.14-15.65 44.14-48.8v-193.3h51.4v193.3c0 62.4-37.12 94.6-95.5 94.6-51.74 0-87.2-28.52-103.7-61.3z" />
</svg>
