<svg xmlns="http://www.w3.org/2000/svg" viewBox="159 114 662 752.5">
  <defs>
    <mask id="js-mask">
      <!-- The visible area of the shield -->
      <rect x="159" y="114" width="662" height="752.5" fill="white" />
      <!-- The JS characters that will be punched out -->
      <path d="M0 0 C69.3 0 138.6 0 210 0 C210 9.74979019 209.85735655 19.25147484 209.16015625 28.94140625 C209.07374374 30.1933226 208.98733124 31.44523895 208.89830017 32.73509216 C208.71664457 35.35099204 208.53250632 37.96672064 208.34594727 40.58227539 C208.10822414 43.92043226 207.8758381 47.25885883 207.6467371 50.59761143 C207.42520567 53.81659845 207.19883723 57.03524308 206.97265625 60.25390625 C206.8491555 62.03988976 206.8491555 62.03988976 206.72315979 63.86195374 C206.64315231 64.97428879 206.56314484 66.08662384 206.48071289 67.23266602 C206.41187393 68.20446304 206.34303497 69.17626007 206.27210999 70.17750549 C205.98698131 73.13503802 205.48846967 76.06918196 205 79 C158.8 79 112.6 79 65 79 C65 116.95 65 154.9 65 194 C80.345 192.02 80.345 192.02 96 190 C101.66650816 189.34950799 107.32762263 188.71310483 113 188.125 C116.07698054 187.80096542 119.15371584 187.47462538 122.23046875 187.1484375 C123.45687325 187.01894714 123.45687325 187.01894714 124.70805359 186.88684082 C132.24184906 186.088358 139.77130515 185.25216997 147.30078125 184.4140625 C151.05929747 183.99744152 154.81785189 183.58116662 158.57641602 183.16497803 C161.05281208 182.88991731 163.52905175 182.61344458 166.00512695 182.33551025 C169.49908166 181.94364115 172.99360266 181.55722757 176.48828125 181.171875 C177.53260818 181.0533316 178.57693512 180.93478821 179.65290833 180.81265259 C185.14194327 180.21281555 190.47833808 179.8767211 196 180 C195.58513338 193.50462372 194.61343175 206.90819129 193.29382324 220.35018921 C192.40146616 229.4498132 191.67931611 238.52046043 191.26196289 247.65405273 C191.03077481 251.9468647 190.57803718 256.19828606 190.09375 260.46875 C188.81642641 272.18771595 187.9439162 283.93333319 187.0625 295.6875 C186.88917471 297.96828139 186.71558721 300.24904287 186.54174805 302.52978516 C185.7167681 313.37688713 184.90762899 324.22511987 184.109375 335.07421875 C183.97259802 336.92553882 183.83579854 338.77685723 183.69897461 340.62817383 C183.44627931 344.04833969 183.19756417 347.46876161 182.95141602 350.8894043 C182.83881527 352.4236735 182.72611009 353.95793505 182.61328125 355.4921875 C182.51829346 356.80558105 182.42330566 358.11897461 182.32543945 359.47216797 C182.02835997 362.69257193 181.53731436 365.81320653 181 369 C180.79670918 371.1618651 180.61954976 373.32630341 180.46484375 375.4921875 C180.37783203 376.69101562 180.29082031 377.88984375 180.20117188 379.125 C180.0706543 380.98125 180.0706543 380.98125 179.9375 382.875 C179.84662109 384.13570312 179.75574219 385.39640625 179.66210938 386.6953125 C179.43890313 389.79670459 179.21828483 392.89825829 179 396 C171.92845088 397.79039221 164.85582502 399.57162444 157.75390625 401.23828125 C156.86082764 401.44815674 155.96774902 401.65803223 155.04760742 401.87426758 C153.32840313 402.27678156 151.60855992 402.67658142 149.88793945 403.07299805 C144.99785178 404.21867025 140.17170601 405.50716285 135.34765625 406.90625 C127.63229285 409.13755152 119.86017663 411.08264597 112.0625 413 C99.15254926 416.18280716 86.29633285 419.51826549 73.484375 423.07861328 C61.87138684 426.29793964 50.19560086 429.23811214 38.49243164 432.10839844 C28.72069788 434.51409453 19.01866612 437.12714427 9.40820312 440.11767578 C6.40357309 440.89552198 4.07317255 441.18625288 1 441 C-0.03486763 424.05593843 -0.11916757 407.15890318 -0.0625 390.1875 C-0.05747018 387.53711023 -0.05290992 384.88671952 -0.04882812 382.23632812 C-0.03795095 375.82419792 -0.02133256 369.41210351 0 363 C0.64207901 362.83395264 1.28415802 362.66790527 1.94569397 362.49682617 C4.91338709 361.72848103 7.88052211 360.95800086 10.84765625 360.1875 C12.36196228 359.79594727 12.36196228 359.79594727 13.90686035 359.39648438 C20.44750838 357.69604709 26.95119811 355.89669449 33.4375 354 C42.01733156 351.5112178 50.64797169 349.31042403 59.32421875 347.18408203 C65.93799594 345.55103737 72.46466516 343.73469478 78.98144531 341.75366211 C84.47513367 340.10329209 90.01426257 338.78397822 95.60913086 337.52563477 C101.50257754 336.17725563 107.27248371 334.50717076 113.02929688 332.66210938 C116.60782116 331.55202206 120.01643695 330.81587538 123.75 330.43432617 C124.54921875 330.35099533 125.3484375 330.26766449 126.171875 330.18180847 C127.07679688 330.09181328 127.07679688 330.09181328 128 330 C127.98839844 328.82598633 127.97679687 327.65197266 127.96484375 326.44238281 C127.87609752 313.18335449 128.34521004 299.99081985 129 286.75 C129.09678679 284.72137476 129.19314292 282.69272893 129.2890625 280.6640625 C129.52110424 275.77579126 129.75887895 270.88783145 130 266 C110.16599495 269.06359771 110.16599495 269.06359771 90.43188477 272.69897461 C78.47808182 275.09813656 66.50353726 277.02571451 54.43768311 278.73925781 C41.21107203 280.62040272 28.05074924 282.81011252 14.89282227 285.12084961 C14.1762294 285.24630157 13.45963654 285.37175354 12.72132874 285.50100708 C10.780652 285.84145756 8.84050229 286.18490843 6.90039062 286.52856445 C4 287 4 287 2 287 C1.99576806 286.44218118 1.99153612 285.88436235 1.98717594 285.30963993 C1.88191871 271.46442378 1.77307277 257.61923927 1.66066074 243.77407932 C1.60636845 237.07750641 1.55318972 230.38092906 1.50268555 223.68432617 C1.44390742 215.91582427 1.38184283 208.14735495 1.31640625 200.37890625 C1.30550524 199.08299623 1.29460423 197.78708622 1.28337288 196.4519062 C1.14477217 180.48337201 0.91267901 164.5214128 0.53756332 148.55674362 C-0.17537264 118.18260458 -0.10961167 87.81868842 -0.0625 57.4375 C-0.041875 38.483125 -0.02125 19.52875 0 0 Z " fill="black" transform="translate(517,260)"/>
      <path d="M0 0 C21.78 0 43.56 0 66 0 C66 145.53 66 291.06 66 441 C57.27197396 439.65722676 49.17425799 438.1743618 40.75 435.8125 C39.63012695 435.50497803 38.51025391 435.19745605 37.35644531 434.88061523 C33.90176908 433.92924682 30.4503809 432.96682134 27 432 C25.96230469 431.70931641 24.92460937 431.41863281 23.85546875 431.11914062 C19.79011126 429.97885743 15.72512879 428.83726558 11.66113281 427.69213867 C2.36875825 425.08199403 -6.95487967 422.59570901 -16.28417969 420.12133789 C-25.70066054 417.62117005 -35.10284135 415.07176262 -44.5 412.5 C-62.14943014 407.67261297 -79.81105668 402.88550376 -97.52734375 398.30859375 C-99.06237549 397.91160278 -99.06237549 397.91160278 -100.62841797 397.5065918 C-102.48735955 397.02723916 -104.3469819 396.55051249 -106.20751953 396.07739258 C-113.23145217 394.26921816 -120.04149929 392.14107714 -127 390 C-127 363.93 -127 337.86 -127 311 C-121.72 312.32 -116.44 313.64 -111 315 C-107.35420689 315.88631936 -107.35420689 315.88631936 -103.70825195 316.77197266 C-95.84717858 318.69617569 -88.06958376 320.81805809 -80.3125 323.125 C-65.84141117 327.42417079 -51.24993014 331.26906802 -36.6640625 335.15625 C-24.43715823 338.41675781 -12.21906905 341.71025064 0 345 C0 231.15 0 117.3 0 0 Z " fill="black" transform="translate(399,260)"/>
    </mask>
  </defs>
  <g mask="url(#js-mask)">
    <path d="M0 0 C218.46 0 436.92 0 662 0 C660.85138439 19.52646536 660.85138439 19.52646536 660.1764555 26.85695267 C660.09954325 27.71636438 660.022631 28.57577609 659.94338807 29.46123058 C659.6901442 32.2838933 659.43318974 35.10620451 659.17619324 37.92852783 C658.9897914 39.99741233 658.80362261 42.06631783 658.61766416 44.13524222 C658.10958825 49.78049742 657.59823812 55.42545183 657.08632243 61.07035995 C656.53271171 67.18155426 655.98218625 73.29302662 655.43127441 79.40446472 C654.47486204 90.0095691 653.51653056 100.61449843 652.55684471 111.21930695 C651.54326765 122.41973135 650.53082589 133.62025747 649.5198307 144.82091522 C649.45648264 145.52273173 649.39313458 146.22454824 649.32786688 146.94763192 C649.00580744 150.51570787 648.68376769 154.08378561 648.3617355 157.65186402 C646.0776658 182.95869328 643.79114656 208.26530068 641.50317383 233.57177734 C639.31123399 257.81613658 637.12031129 282.06058733 634.9309082 306.30517578 C634.83086969 307.41295543 634.83086969 307.41295543 634.7288102 308.54311446 C633.99077491 316.71578747 633.252771 324.88846332 632.51478231 333.06114054 C631.183492 347.8041776 629.85206944 362.54720272 628.52058411 377.29022217 C628.45543393 378.01160808 628.39028376 378.732994 628.32315934 379.47624009 C626.50220999 399.63893553 624.68069937 419.80158016 622.85847778 439.96416065 C622.50015765 443.92898303 622.14186515 447.8938079 621.78357834 451.85863328 C620.73014107 463.51571809 619.67653082 475.17278713 618.62203171 486.82977594 C616.16971213 513.94003089 613.72435785 541.05088502 611.29301593 568.16302831 C610.80058375 573.65372144 610.30766182 579.14437043 609.81440455 584.6349895 C609.74546936 585.40234477 609.67653417 586.16970005 609.60551003 586.96030851 C609.32883973 590.03993424 609.05215057 593.11955827 608.77539631 596.19917645 C607.96599233 605.20597382 607.15820291 614.21291214 606.35328909 623.22011194 C605.85361654 628.81007014 605.35200342 634.39985203 604.84887103 639.98949988 C604.55805219 643.22120968 604.26846313 646.45302173 603.98066916 649.68500251 C603.66757664 653.19976588 603.35115219 656.71421387 603.03389454 660.22860336 C602.94319011 661.25607973 602.85248567 662.28355609 602.75903262 663.34216811 C602.67321789 664.28519364 602.58740315 665.22821917 602.49898797 666.19982123 C602.38987728 667.41791253 602.38987728 667.41791253 602.27856233 668.66061173 C601.98301495 671.14264175 601.52077918 673.55615191 601 676 C563.68652467 686.69539206 526.35750661 697.33436418 489 707.875 C488.1176405 708.12397285 487.23528099 708.37294571 486.32618332 708.6294632 C473.78226332 712.16877806 461.23757964 715.70538217 448.69264221 719.24108887 C444.19188398 720.50961073 439.69115626 721.77824083 435.19042969 723.046875 C434.30320347 723.29695753 433.41597725 723.54704006 432.50186539 723.80470085 C425.47141778 725.7864026 418.44107055 727.76846024 411.41076279 729.75065804 C406.53609178 731.12500622 401.66124486 732.49872754 396.78619003 733.87171364 C394.50630093 734.51396676 392.22656253 735.15675271 389.94683838 735.79959106 C387.00978433 736.62766717 384.07202191 737.4531598 381.13372803 738.27682495 C374.31707011 740.19127621 367.51116833 742.13395674 360.72565269 744.15639305 C357.51106037 745.11390829 354.29340168 746.06089665 351.07565689 747.00775528 C349.55063283 747.46013306 348.02723716 747.91804341 346.50567245 748.38192368 C344.39971835 749.02383159 342.28892203 749.64667015 340.17626953 750.26611328 C338.38215134 750.80572189 338.38215134 750.80572189 336.55178833 751.35623169 C330.40764813 752.46986865 324.89064371 751.12819583 318.9230957 749.43139648 C317.77315628 749.10755478 316.62321686 748.78371307 315.43843079 748.45005798 C314.19675644 748.09399979 312.95508209 747.73794159 311.67578125 747.37109375 C310.33028071 746.98988429 308.98462889 746.60920843 307.63883972 746.22901917 C304.73090625 745.40631971 301.82404754 744.57995928 298.91796875 743.75073242 C294.22168461 742.41072652 289.52311993 741.07884205 284.82421875 739.74804688 C278.93764283 738.0802745 273.0516561 736.41044934 267.1663723 734.73812294 C255.74307963 731.49223367 244.31581241 728.26055508 232.88671875 725.03515625 C231.5695968 724.6634389 231.5695968 724.6634389 230.22586632 724.28421211 C226.66469282 723.27921685 223.10350137 722.27428526 219.54227352 721.26948261 C213.27130475 719.50008359 207.00067273 717.72949513 200.73022461 715.95825195 C183.5068726 711.09327296 166.28240406 706.2323155 149.0546875 701.3828125 C147.44651273 700.93007453 145.83833808 700.47733609 144.23016357 700.02459717 C135.17480095 697.47544703 135.17480095 697.47544703 126.11889648 694.92822266 C111.06612884 690.69592586 96.01721773 686.45005912 80.97838211 682.16848373 C79.40375997 681.72044341 77.82895079 681.27305991 76.25394821 680.8263588 C74.07320215 680.20762559 71.89319876 679.58634263 69.71337891 678.96435547 C68.4636026 678.60872528 67.21382629 678.25309509 65.92617798 677.88668823 C63 677 63 677 61 676 C60.55605057 673.20057416 60.24707065 670.47719923 60.00794983 667.65748596 C59.92480839 666.76566461 59.84166694 665.87384325 59.75600606 664.954997 C59.4755108 661.92070467 59.20870468 658.88535631 58.94165039 655.84985352 C58.74207243 653.66004413 58.54166134 651.47031054 58.34048653 649.28064728 C57.78393919 643.19615507 57.23933622 637.11064117 56.69645095 631.02491689 C56.16374246 625.07460299 55.62205106 619.12510886 55.08057476 613.17558794 C53.95721497 600.82916008 52.84275512 588.48194322 51.73309326 576.13427734 C50.62067727 563.75645001 49.50445848 551.37897526 48.38311768 539.00195312 C48.3130368 538.22840658 48.24295593 537.45486004 48.17075139 536.65787269 C47.8131364 532.71082509 47.45544202 528.76378469 47.09770775 524.8167479 C46.35870926 516.66285102 45.62022363 508.50890769 44.88189697 500.35494995 C44.80709372 499.52885113 44.73229047 498.7027523 44.65522045 497.85162018 C43.483104 484.90623749 42.31339534 471.96063839 41.1449585 459.0149231 C40.98319508 457.22273492 40.82143109 455.43054679 40.65966654 453.63835871 C40.57904282 452.74512559 40.49841911 451.85189247 40.41535226 450.93159168 C35.9665472 401.64342962 31.49341313 352.35749965 27.01234035 303.07226151 C25.69731287 288.60881005 24.38283479 274.14530872 23.06867981 259.68177795 C22.96906379 258.58541213 22.86944777 257.4890463 22.76681308 256.35945726 C21.0658466 237.63857583 19.36510165 218.91767426 17.66444796 200.19676441 C16.6677741 189.22545237 15.6709418 178.25415477 14.67378616 167.28288651 C12.56079489 144.03412347 10.44898432 120.78525443 8.34116966 97.53602141 C7.37275332 86.85483647 6.40306849 76.17376845 5.43159607 65.49286101 C4.77879728 58.31424215 4.12763299 51.13547625 3.47781137 43.95658727 C3.1056867 39.84605462 2.73283808 35.73559104 2.35803711 31.62530148 C2.01671577 27.88198208 1.67745311 24.13848212 1.3398607 20.39482463 C1.15969683 18.40296118 0.97731353 16.41129886 0.79485494 14.4196443 C0.68896682 13.24082026 0.58307871 12.06199623 0.47398186 10.84745026 C0.38175405 9.83126318 0.28952625 8.81507611 0.19450366 7.76809549 C0.01294933 5.18428948 0 2.59017673 0 0 Z " fill="#D3B62A" transform="translate(159,114)"/>
    <path d="M0 0 C88.77 0 177.54 0 269 0 C269 10.1117587 268.97138084 19.41674406 267.8125 29.3125 C267.5326756 31.89671986 267.25692639 34.4810281 266.98828125 37.06640625 C266.91251862 37.79475677 266.83675598 38.5231073 266.75869751 39.27352905 C265.48871007 51.74839743 264.52659834 64.25332526 263.5 76.75 C263.065662 82.02348347 262.63041185 87.29689181 262.1953125 92.5703125 C262.09080276 93.83823135 261.98629303 95.10615021 261.87861633 96.41249084 C260.75983916 109.95929878 259.5675424 123.49872851 258.3515625 137.03710938 C258.02663282 140.69978893 257.70915367 144.36299743 257.39535522 148.02664185 C257.12280352 151.20838584 256.8479561 154.38993006 256.57305908 157.57147217 C256.44266528 159.08801842 256.31336408 160.60465908 256.1852417 162.12139893 C256.00922661 164.20359132 255.82925584 166.28540753 255.6484375 168.3671875 C255.49640869 170.14778564 255.49640869 170.14778564 255.34130859 171.96435547 C255 175 255 175 254.5 176.90429688 C253.69571546 180.27538011 253.58018895 183.71543078 253.3515625 187.1640625 C253.23364954 188.84456429 253.1157293 190.52506557 252.99780273 192.20556641 C252.93712616 193.08931946 252.87644958 193.97307251 252.81393433 194.88360596 C252.49389668 199.52727933 252.15975332 204.16992394 251.82421875 208.8125 C251.75624588 209.75308258 251.68827301 210.69366516 251.61824036 211.66275024 C250.96237673 220.65652419 250.22400979 229.64179666 249.4375 238.625 C249.37951233 239.30185852 249.32152466 239.97871704 249.26177979 240.67608643 C248.66965835 247.56379306 247.96887201 254.40852517 247 261.25390625 C245.88098777 269.38620716 245.29058167 277.52867105 244.73822021 285.71646118 C244.43492693 290.19722701 244.11406557 294.67672989 243.79296875 299.15625 C243.72829407 300.06055252 243.66361938 300.96485504 243.59698486 301.89656067 C242.93636566 311.04226984 242.17604431 320.17813818 241.375 329.3125 C241.31265167 330.03732574 241.25030334 330.76215149 241.18606567 331.50894165 C241.01046818 333.5440364 240.82958328 335.57867286 240.6484375 337.61328125 C240.49640869 339.32704956 240.49640869 339.32704956 240.34130859 341.07543945 C240 344 240 344 239.48632812 346.03051758 C238.83851808 348.65395313 238.72379763 351.20100907 238.5703125 353.8984375 C238.49868896 355.0855835 238.42706543 356.27272949 238.35327148 357.49584961 C238.27794189 358.77596924 238.2026123 360.05608887 238.125 361.375 C237.38242533 373.4639378 236.33987828 385.49045964 235.05322266 397.53466797 C234.26722223 404.96169709 233.68324488 412.36740049 233.26586914 419.82250977 C233 423 233 423 232.52253723 424.72013855 C231.77075845 428.00019471 231.60111407 431.30683048 231.37353516 434.65527344 C231.31829052 435.42203651 231.26304588 436.18879959 231.20612717 436.97879791 C231.08607368 438.6452763 230.96742664 440.31185647 230.85001755 441.97852325 C230.52959669 446.51176814 230.19549375 451.04399469 229.86035156 455.57617188 C229.75586102 456.98992537 229.75586102 456.98992537 229.64925957 458.43223953 C228.51646356 473.62530489 227.17319201 488.80117908 225.83789062 503.97753906 C225.44285423 508.46863331 225.05319559 512.96017816 224.66475487 517.45184708 C224.35990143 520.96925659 224.05206928 524.4864005 223.74333572 528.00347137 C223.59802147 529.66356546 223.4536935 531.3237462 223.31040573 532.98401642 C223.11285528 535.26859918 222.91121982 537.55278536 222.70849609 539.83691406 C222.59541107 541.12857483 222.48232605 542.4202356 222.36581421 543.7510376 C222.07987619 546.29058322 221.6717405 548.54998305 221 551 C220.78843216 553.02284583 220.61399108 555.04972137 220.46484375 557.078125 C220.33432617 558.81835938 220.33432617 558.81835938 220.20117188 560.59375 C220.0706543 562.40359375 220.0706543 562.40359375 219.9375 564.25 C219.84662109 565.47203125 219.75574219 566.6940625 219.66210938 567.953125 C219.43830939 570.96853537 219.21772716 573.98414606 219 577 C214.19995782 578.87623798 209.61831007 580.43960538 204.5625 581.5 C200.85071218 582.28045101 197.29053264 583.20788259 193.70703125 584.4375 C188.90751305 586.07559533 184.05209174 587.31089873 179.125 588.5 C177.36307139 588.93274017 175.6013506 589.36632742 173.83984375 589.80078125 C173.00437012 590.00654785 172.16889648 590.21231445 171.30810547 590.42431641 C165.78176495 591.80268651 160.30050116 593.33704769 154.828125 594.9140625 C151.15412018 595.95628019 147.47159412 596.95865483 143.78442383 597.95288086 C134.92759349 600.34324793 126.10849846 602.8323575 117.3125 605.4375 C109.14141505 607.8490274 100.94368943 610.08661152 92.6875 612.1875 C80.63508369 615.25649338 68.66116919 618.57667339 56.6875 621.9375 C30.75140646 629.20674652 30.75140646 629.20674652 19.55679321 632.22756958 C17.67693435 632.73595497 15.7987665 633.25058032 13.9206543 633.76538086 C12.804729 634.06452393 11.68880371 634.36366699 10.5390625 634.671875 C9.10361084 635.06004395 9.10361084 635.06004395 7.63916016 635.45605469 C5 636 5 636 0 636 C0 426.12 0 216.24 0 0 Z " fill="#FAD725" transform="translate(491,175)"/>
  </g>
</svg>