<?xml version="1.0" encoding="UTF-8"?>
<svg version="1.1" xmlns="http://www.w3.org/2000/svg" viewBox="0 0 218 182" width="100%" height="100%">
<path d="M0 0 C3.8125 -0.6875 3.8125 -0.6875 7 0 C9 2 9 2 9.4609375 5.12109375 C8.84844417 10.27538085 6.7197001 13.01284781 3.625 17.0625 C3.08786377 17.79621826 2.55072754 18.52993652 1.99731445 19.28588867 C0.34756041 21.53634857 -1.32261387 23.7700806 -3 26 C-4.49695089 27.99220032 -5.99071012 29.98602742 -7.46923828 31.99194336 C-8.34709584 33.18172594 -9.23699047 34.36274519 -10.14013672 35.53344727 C-12.37977023 38.48316129 -12.37977023 38.48316129 -12.97265625 42.03125 C-11.66306949 44.68197982 -10.18250874 47.17379918 -8.625 49.6875 C-5.61804801 54.71966811 -3.59448459 59.37240731 -2 65 C-0.865625 64.84015625 0.26875 64.6803125 1.4375 64.515625 C5.9663466 63.95350584 10.439613 63.78112892 15 63.75 C15.75539062 63.729375 16.51078125 63.70875 17.2890625 63.6875 C24.1211691 63.64054394 29.60396607 64.96082218 34.9375 69.5 C38.11699305 73.35393097 38.35497628 76.67224393 38.26953125 81.48046875 C37.22344757 91.25907709 30.7963675 100.2036325 24 107 C24.2868941 110.75353108 26.34000733 112.81275273 28.75 115.5625 C34.99422302 123.22178076 38.89605899 130.54790867 38.3515625 140.62109375 C37.6587336 145.30923599 35.91649799 147.25401326 32.3125 150.1875 C21.62044747 156.03786837 10.4964943 154.21238378 -1 152 C-1.65355469 153.46759766 -1.65355469 153.46759766 -2.3203125 154.96484375 C-11.77306343 175.89822519 -11.77306343 175.89822519 -21.3125 181.3125 C-26.4385273 182.62380931 -30.52058002 181.73970999 -35.125 179.4375 C-43.09765019 172.67807919 -48.11866192 162.95371338 -51 153 C-51.54785156 153.0721875 -52.09570312 153.144375 -52.66015625 153.21875 C-65.41376235 154.7118551 -78.33794061 156.14668036 -89 148 C-89.34144043 148.50225098 -89.68288086 149.00450195 -90.03466797 149.52197266 C-95.87342736 158.10309072 -101.71527595 166.6799905 -107.75 175.125 C-108.16749512 175.70975098 -108.58499023 176.29450195 -109.01513672 176.89697266 C-111.86344926 180.86344926 -111.86344926 180.86344926 -113 182 C-116.4375 182.1875 -116.4375 182.1875 -120 182 C-120.99 181.01 -120.99 181.01 -122 180 C-122 173 -122 173 -111 157 C-129.48 156.67 -147.96 156.34 -167 156 C-167 107.82 -167 59.64 -167 10 C-155.53121094 10.03222656 -144.06242187 10.06445312 -132.24609375 10.09765625 C-124.98627924 10.0980375 -117.72658326 10.09614903 -110.46679688 10.08398438 C-98.94014978 10.06509334 -87.41403049 10.05554645 -75.88745117 10.10620117 C-67.49271683 10.14305003 -59.09865514 10.14833251 -50.70389229 10.11582941 C-46.25929316 10.09971992 -41.81595557 10.09933614 -37.37145805 10.13676643 C-33.18555228 10.17151989 -29.00182691 10.16397871 -24.81598473 10.12437057 C-23.28215025 10.11724286 -21.74815445 10.12540459 -20.21450424 10.15022469 C-11.84462814 10.50895743 -11.84462814 10.50895743 -4.62623787 6.94625664 C-2.74062296 4.54105211 -2.74062296 4.54105211 -1.35926914 1.99674129 C-0.91071033 1.33781667 -0.46215151 0.67889204 0 0 Z M-21 50 C-23.47959698 53.19850265 -25.7468534 56.55658561 -28.0625 59.875 C-28.72572266 60.81214844 -29.38894531 61.74929687 -30.07226562 62.71484375 C-31.01295898 64.05869141 -31.01295898 64.05869141 -31.97265625 65.4296875 C-32.55281494 66.25710449 -33.13297363 67.08452148 -33.73071289 67.93701172 C-35.17467477 69.88020256 -35.17467477 69.88020256 -35 72 C-30.6884635 74.37301622 -27.42613137 75.31906668 -22.54296875 74.2265625 C-19.17097167 72.99970579 -16.07157561 71.86031439 -13 70 C-12.04131065 67.68090514 -11.84521929 66.47937587 -12.62084961 64.07714844 C-12.96124268 63.4277832 -13.30163574 62.77841797 -13.65234375 62.109375 C-14.01650391 61.40039062 -14.38066406 60.69140625 -14.75585938 59.9609375 C-15.14580078 59.23132812 -15.53574219 58.50171875 -15.9375 57.75 C-16.51661133 56.63238281 -16.51661133 56.63238281 -17.10742188 55.4921875 C-18.06090166 53.65585606 -19.02905677 51.82715793 -20 50 C-20.33 50 -20.66 50 -21 50 Z M0 76 C0.62318334 86.38065378 0.62318334 86.38065378 5.6484375 95.06640625 C8.35149639 97.23093798 11.04655204 99.19483656 14 101 C17.96409444 99.4801342 19.6971501 97.09849064 22.125 93.6875 C22.80820313 92.74261719 23.49140625 91.79773438 24.1953125 90.82421875 C27.11065475 86.26189744 28.71382462 82.47265541 28 77 C25.47262773 74.2100436 23.93099596 73.99351125 20.13671875 73.63671875 C18.65354983 73.63804183 17.1703234 73.65545974 15.6875 73.6875 C14.95337891 73.68427734 14.21925781 73.68105469 13.46289062 73.67773438 C8.62914305 73.72491381 4.58738126 74.47895285 0 76 Z M-42 80 C-42.33 80.99 -42.66 81.98 -43 83 C-41.68 82.67 -40.36 82.34 -39 82 C-39 81.34 -39 80.68 -39 80 C-39.99 80 -40.98 80 -42 80 Z M-14 80 C-14 80.66 -14 81.32 -14 82 C-12.02 82.99 -10.04 83.98 -8 85 C-8.33 83.02 -8.66 81.04 -9 79 C-11.21081851 78.89459074 -11.21081851 78.89459074 -14 80 Z M-29.92578125 87.29296875 C-31.60220703 88.23076172 -31.60220703 88.23076172 -33.3125 89.1875 C-34.97732422 90.10595703 -34.97732422 90.10595703 -36.67578125 91.04296875 C-42.6225447 94.02605065 -42.6225447 94.02605065 -46.8671875 98.78515625 C-47.06055376 102.00982307 -47.13140495 105.20620286 -47.125 108.4375 C-47.12757812 109.73558594 -47.13015625 111.03367187 -47.1328125 112.37109375 C-47.08898437 113.56863281 -47.04515625 114.76617187 -47 116 C-47.00515625 116.87269531 -47.0103125 117.74539062 -47.015625 118.64453125 C-45.26473545 122.70524816 -41.385993 124.19743193 -37.625 126.25 C-36.45324219 126.91902344 -36.45324219 126.91902344 -35.2578125 127.6015625 C-32.18400582 129.33847381 -29.35822264 130.88059245 -26 132 C-24.16408346 131.34348179 -24.16408346 131.34348179 -22.3125 130.19921875 C-21.61382812 129.79896484 -20.91515625 129.39871094 -20.1953125 128.98632812 C-19.47085938 128.55771484 -18.74640625 128.12910156 -18 127.6875 C-17.27554688 127.27048828 -16.55109375 126.85347656 -15.8046875 126.42382812 C-9.96362526 123.58782112 -9.96362526 123.58782112 -6.32421875 118.84375 C-5.92924762 115.37942488 -5.82993603 111.98720625 -5.8125 108.5 C-5.79832031 107.2109375 -5.78414062 105.921875 -5.76953125 104.59375 C-6.03853685 100.01171484 -6.03853685 100.01171484 -8 96 C-10.49896102 94.12738379 -13.17404863 92.69370283 -15.9375 91.25 C-16.66646484 90.85167969 -17.39542969 90.45335938 -18.14648438 90.04296875 C-23.79880805 86.54190995 -23.79880805 86.54190995 -29.92578125 87.29296875 Z M-58 106 C-58.66 107.32 -59.32 108.64 -60 110 C-58.515 110.99 -58.515 110.99 -57 112 C-57 110.02 -57 108.04 -57 106 C-57.33 106 -57.66 106 -58 106 Z M4 106 C4 107.98 4 109.96 4 112 C5.32 110.68 6.64 109.36 8 108 C6.68 107.34 5.36 106.68 4 106 Z M10.0625 119.375 C7.75056493 121.47518775 5.60985473 123.26009684 3 125 C2.31595374 126.81543915 2.31595374 126.81543915 2.05078125 128.9140625 C1.92509766 129.67460937 1.79941406 130.43515625 1.66992188 131.21875 C1.49299805 132.40984375 1.49299805 132.40984375 1.3125 133.625 C1.11817383 134.82769531 1.11817383 134.82769531 0.91992188 136.0546875 C0.60171614 138.03463427 0.29934363 140.01711385 0 142 C9.90915051 144.10993319 18.73473857 145.83404944 28 141 C28.81233639 131.2519633 23.68785661 125.27686187 17.8046875 117.90625 C17.20914063 117.2771875 16.61359375 116.648125 16 116 C13.10226816 116 12.17353237 117.4487321 10.0625 119.375 Z M-68 117 C-70.18577734 120.04926671 -72.3450631 123.11637891 -74.5 126.1875 C-75.43005859 127.48397461 -75.43005859 127.48397461 -76.37890625 128.80664062 C-76.96542969 129.64775391 -77.55195312 130.48886719 -78.15625 131.35546875 C-78.70087891 132.12528076 -79.24550781 132.89509277 -79.80664062 133.68823242 C-81.19494968 136.37765519 -81.39289325 138.01325756 -81 141 C-77.17141266 144.36007952 -73.6339987 144.37818384 -68.6875 144.3125 C-67.43324219 144.30863281 -66.17898437 144.30476563 -64.88671875 144.30078125 C-60.67767207 143.97505603 -57.05780778 143.13042148 -53 142 C-53.71669182 131.53273358 -53.71669182 131.53273358 -58.09765625 122.34765625 C-61.30123512 119.88376551 -64.16773121 118.27742293 -68 117 Z M-45 133 C-44.67 134.98 -44.34 136.96 -44 139 C-42.35 138.34 -40.7 137.68 -39 137 C-41.71003293 134.32668287 -41.71003293 134.32668287 -45 133 Z M-14 137 C-11.525 137.99 -11.525 137.99 -9 139 C-8.67 137.02 -8.34 135.04 -8 133 C-10.22114466 133 -12.35878948 135.65336573 -14 137 Z M-34.125 145.3125 C-35.73761719 145.95638672 -35.73761719 145.95638672 -37.3828125 146.61328125 C-40.30960844 147.77844577 -40.30960844 147.77844577 -41 151 C-38.58149753 158.87740805 -35.03245674 167.31169551 -28 172 C-24.97669931 171.89922331 -23.88747933 170.90051191 -21.60546875 168.8828125 C-18.81749766 165.79807087 -16.97095522 162.65007897 -15.1875 158.9375 C-14.87619141 158.32583984 -14.56488281 157.71417969 -14.24414062 157.08398438 C-12.59330538 153.72789075 -12 151.82184148 -12 148 C-14.10171867 147.1605118 -16.20646625 146.32860344 -18.3125 145.5 C-19.48425781 145.0359375 -20.65601563 144.571875 -21.86328125 144.09375 C-26.80925743 142.36912568 -29.40234817 143.38360967 -34.125 145.3125 Z " fill="#14B8A6" transform="translate(167,0)"/>
<path d="M0 0 C6.02771999 2.21237195 8.26639667 8.59221951 11 14 C12.19553278 16.98883196 13.12096669 19.89752951 14 23 C15.7015625 22.76023437 15.7015625 22.76023437 17.4375 22.515625 C21.9663466 21.95350584 26.439613 21.78112892 31 21.75 C31.75539063 21.729375 32.51078125 21.70875 33.2890625 21.6875 C40.1211691 21.64054394 45.60396607 22.96082218 50.9375 27.5 C54.11699305 31.35393097 54.35497628 34.67224393 54.26953125 39.48046875 C53.22344757 49.25907709 46.7963675 58.2036325 40 65 C40.2868941 68.75353108 42.34000733 70.81275273 44.75 73.5625 C50.99422302 81.22178076 54.89605899 88.54790867 54.3515625 98.62109375 C53.6587336 103.30923599 51.91649799 105.25401326 48.3125 108.1875 C37.62044747 114.03786837 26.4964943 112.21238378 15 110 C14.34644531 111.46759766 14.34644531 111.46759766 13.6796875 112.96484375 C4.22693657 133.89822519 4.22693657 133.89822519 -5.3125 139.3125 C-10.4385273 140.62380931 -14.52058002 139.73970999 -19.125 137.4375 C-27.09765019 130.67807919 -32.11866192 120.95371338 -35 111 C-35.82177734 111.10828125 -35.82177734 111.10828125 -36.66015625 111.21875 C-59.96155182 113.94671826 -59.96155182 113.94671826 -69 109 C-70.734375 107.5390625 -70.734375 107.5390625 -72 106 C-72 101.09930497 -69.12713557 98.44786742 -66 95 C-65.7525 95.61875 -65.505 96.2375 -65.25 96.875 C-63.69996337 99.51006227 -62.85604025 99.94012299 -60 101 C-56.50103824 101.31800476 -56.50103824 101.31800476 -52.6875 101.25 C-51.41261719 101.25515625 -50.13773438 101.2603125 -48.82421875 101.265625 C-44.85585643 100.98998799 -41.75945057 100.22559061 -38 99 C-38.22754589 96.37124622 -38.48081739 93.74953041 -38.75 91.125 C-38.811875 90.37863281 -38.87375 89.63226563 -38.9375 88.86328125 C-39.16023862 86.42244484 -39.16023862 86.42244484 -40 83 C-41.79166667 81.58333333 -41.79166667 81.58333333 -44 81 C-45.28016835 79.99564028 -46.53128122 78.95309739 -47.75 77.875 C-48.36359375 77.33617188 -48.9771875 76.79734375 -49.609375 76.2421875 C-50.06828125 75.83226563 -50.5271875 75.42234375 -51 75 C-49.36697741 69.96237273 -46.38326463 66.05336981 -43.3125 61.8125 C-42.22352062 60.29588711 -41.13497699 58.77896125 -40.046875 57.26171875 C-39.25893555 56.16609619 -39.25893555 56.16609619 -38.45507812 55.04833984 C-36.08746558 51.71540876 -33.83353389 48.30519587 -31.59765625 44.8828125 C-29.65256288 42.59055088 -27.66687937 41.36126427 -25 40 C-24.34 40 -23.68 40 -23 40 C-23 39.34 -23 38.68 -23 38 C-23.66 38 -24.32 38 -25 38 C-23.68775452 34.06326356 -22.08089673 31.77280706 -19 29 C-18.50113281 29.27457031 -18.00226563 29.54914063 -17.48828125 29.83203125 C-13.39416029 31.67695829 -10.94364749 32.24699498 -6.5078125 31.0859375 C-3.28205843 29.82245833 -0.12951004 28.48494526 3 27 C2.23546999 21.66789326 -0.24089151 17.59709921 -2.8203125 12.9375 C-4.14177764 9.64696429 -4.11851371 8.31057575 -3 5 C-1.4375 2.1875 -1.4375 2.1875 0 0 Z M16 34 C16.62318334 44.38065378 16.62318334 44.38065378 21.6484375 53.06640625 C24.35149639 55.23093798 27.04655204 57.19483656 30 59 C33.96409444 57.4801342 35.6971501 55.09849064 38.125 51.6875 C38.80820313 50.74261719 39.49140625 49.79773438 40.1953125 48.82421875 C43.11065475 44.26189744 44.71382462 40.47265541 44 35 C41.47262773 32.2100436 39.93099596 31.99351125 36.13671875 31.63671875 C34.65354983 31.63804183 33.1703234 31.65545974 31.6875 31.6875 C30.95337891 31.68427734 30.21925781 31.68105469 29.46289062 31.67773438 C24.62914305 31.72491381 20.58738126 32.47895285 16 34 Z M2 38 C2 38.66 2 39.32 2 40 C3.98 40.99 5.96 41.98 8 43 C7.67 41.02 7.34 39.04 7 37 C4.78918149 36.89459074 4.78918149 36.89459074 2 38 Z M-13.92578125 45.29296875 C-15.60220703 46.23076172 -15.60220703 46.23076172 -17.3125 47.1875 C-18.97732422 48.10595703 -18.97732422 48.10595703 -20.67578125 49.04296875 C-26.6225447 52.02605065 -26.6225447 52.02605065 -30.8671875 56.78515625 C-31.06055376 60.00982307 -31.13140495 63.20620286 -31.125 66.4375 C-31.12757812 67.73558594 -31.13015625 69.03367187 -31.1328125 70.37109375 C-31.08898437 71.56863281 -31.04515625 72.76617187 -31 74 C-31.00515625 74.87269531 -31.0103125 75.74539062 -31.015625 76.64453125 C-29.26473545 80.70524816 -25.385993 82.19743193 -21.625 84.25 C-20.45324219 84.91902344 -20.45324219 84.91902344 -19.2578125 85.6015625 C-16.18400582 87.33847381 -13.35822264 88.88059245 -10 90 C-8.16408346 89.34348179 -8.16408346 89.34348179 -6.3125 88.19921875 C-5.61382812 87.79896484 -4.91515625 87.39871094 -4.1953125 86.98632812 C-3.47085938 86.55771484 -2.74640625 86.12910156 -2 85.6875 C-1.27554688 85.27048828 -0.55109375 84.85347656 0.1953125 84.42382812 C6.03637474 81.58782112 6.03637474 81.58782112 9.67578125 76.84375 C10.07075238 73.37942488 10.17006397 69.98720625 10.1875 66.5 C10.20167969 65.2109375 10.21585938 63.921875 10.23046875 62.59375 C9.96146315 58.01171484 9.96146315 58.01171484 8 54 C5.50103898 52.12738379 2.82595137 50.69370283 0.0625 49.25 C-0.66646484 48.85167969 -1.39542969 48.45335937 -2.14648438 48.04296875 C-7.79880805 44.54190995 -7.79880805 44.54190995 -13.92578125 45.29296875 Z M-42 64 C-42.66 65.32 -43.32 66.64 -44 68 C-42.515 68.99 -42.515 68.99 -41 70 C-41 68.02 -41 66.04 -41 64 C-41.33 64 -41.66 64 -42 64 Z M20 64 C20 65.98 20 67.96 20 70 C21.32 68.68 22.64 67.36 24 66 C22.68 65.34 21.36 64.68 20 64 Z M26.0625 77.375 C23.75056493 79.47518775 21.60985473 81.26009684 19 83 C18.31595374 84.81543915 18.31595374 84.81543915 18.05078125 86.9140625 C17.92509766 87.67460937 17.79941406 88.43515625 17.66992188 89.21875 C17.49299805 90.40984375 17.49299805 90.40984375 17.3125 91.625 C17.11817383 92.82769531 17.11817383 92.82769531 16.91992188 94.0546875 C16.60171614 96.03463427 16.29934363 98.01711385 16 100 C25.90915051 102.10993319 34.73473857 103.83404944 44 99 C44.81233639 89.2519633 39.68785661 83.27686187 33.8046875 75.90625 C33.20914063 75.2771875 32.61359375 74.648125 32 74 C29.10226816 74 28.17353237 75.4487321 26.0625 77.375 Z M-29 91 C-28.67 92.98 -28.34 94.96 -28 97 C-26.35 96.34 -24.7 95.68 -23 95 C-25.71003293 92.32668287 -25.71003293 92.32668287 -29 91 Z M2 95 C4.475 95.99 4.475 95.99 7 97 C7.33 95.02 7.66 93.04 8 91 C5.77885534 91 3.64121052 93.65336573 2 95 Z M-18.125 103.3125 C-19.73761719 103.95638672 -19.73761719 103.95638672 -21.3828125 104.61328125 C-24.30960844 105.77844577 -24.30960844 105.77844577 -25 109 C-22.58149753 116.87740805 -19.03245674 125.31169551 -12 130 C-8.97669931 129.89922331 -7.88747933 128.90051191 -5.60546875 126.8828125 C-2.81749766 123.79807087 -0.97095522 120.65007897 0.8125 116.9375 C1.12380859 116.32583984 1.43511719 115.71417969 1.75585938 115.08398438 C3.40669462 111.72789075 4 109.82184148 4 106 C1.89828133 105.1605118 -0.20646625 104.32860344 -2.3125 103.5 C-3.48425781 103.0359375 -4.65601563 102.571875 -5.86328125 102.09375 C-10.80925743 100.36912568 -13.40234817 101.38360967 -18.125 103.3125 Z " fill="#1A76D1" transform="translate(151,42)"/>
<path d="M0 0 C3.5 0.25 3.5 0.25 5.5 2.25 C6.31891165 7.85639514 4.98622383 10.73421274 1.79077148 15.09912109 C1.26169189 15.78828613 0.7326123 16.47745117 0.1875 17.1875 C-0.91272714 18.67744933 -2.01165333 20.16836006 -3.109375 21.66015625 C-3.67205078 22.41570801 -4.23472656 23.17125977 -4.81445312 23.94970703 C-7.97795802 28.26699311 -10.94362393 32.721057 -13.93286133 37.15991211 C-15.94718542 40.11905829 -17.96666854 42.73675061 -20.5 45.25 C-21.53358707 46.81161525 -22.5293848 48.39848491 -23.5 50 C-26.92336885 55.48029749 -30.66876002 60.65080339 -34.51708984 65.83422852 C-36.97445975 69.15095787 -39.37062596 72.47744402 -41.625 75.9375 C-43.83060383 79.31483086 -46.18864483 82.5348813 -48.625 85.75 C-56.35983881 95.98036957 -63.80473285 106.41459595 -70.58984375 117.30078125 C-73.14825245 121.25088057 -75.84743948 125.09393021 -78.5625 128.9375 C-79.0575 129.63875 -79.5525 130.34 -80.0625 131.0625 C-82.54527618 134.55946061 -85.06712724 138.01939385 -87.65234375 141.44140625 C-89.87980649 144.39630695 -91.98184854 147.39661615 -94 150.5 C-97.82712208 156.29260144 -101.77267404 161.99708586 -105.75 167.6875 C-106.35263672 168.55213867 -106.95527344 169.41677734 -107.57617188 170.30761719 C-109.2041317 172.63158882 -110.84724364 174.94362183 -112.5 177.25 C-113.22445312 178.26320312 -113.94890625 179.27640625 -114.6953125 180.3203125 C-116.5 182.25 -116.5 182.25 -120.125 182.6875 C-123.5 182.25 -123.5 182.25 -125.5 180.25 C-126.3750197 174.50813521 -124.83667509 171.53392805 -121.58984375 167.04882812 C-121.04457031 166.33146484 -120.49929687 165.61410156 -119.9375 164.875 C-119.38320312 164.11896484 -118.82890625 163.36292969 -118.2578125 162.58398438 C-115.04749771 158.22712858 -111.74274146 153.94627417 -108.37890625 149.70703125 C-103.54059479 143.38000857 -99.06487509 136.77528389 -94.5 130.25 C-93.39211648 128.67044006 -92.28404173 127.09101423 -91.17578125 125.51171875 C-84.06265387 115.36877478 -76.98153677 105.20369217 -69.91699219 95.02685547 C-69.2830957 94.11436035 -68.64919922 93.20186523 -67.99609375 92.26171875 C-67.39837158 91.40006104 -66.80064941 90.53840332 -66.18481445 89.65063477 C-64.67400745 87.49793729 -63.12824885 85.37644005 -61.5703125 83.2578125 C-59.34831506 80.45298782 -59.34831506 80.45298782 -58.9375 77.4375 C-58.793125 76.715625 -58.64875 75.99375 -58.5 75.25 C-57.8920459 74.95464355 -57.2840918 74.65928711 -56.65771484 74.35498047 C-54.08953739 73.0397993 -53.15422863 71.75612898 -51.5390625 69.3828125 C-50.9925 68.59003906 -50.4459375 67.79726562 -49.8828125 66.98046875 C-49.30273438 66.12066406 -48.72265625 65.26085937 -48.125 64.375 C-46.86741983 62.54411123 -45.60960076 60.71338654 -44.3515625 58.8828125 C-43.7112207 57.94469727 -43.07087891 57.00658203 -42.41113281 56.04003906 C-39.47453707 51.75293941 -36.48634673 47.50251382 -33.5 43.25 C-32.34224137 41.59519657 -31.18469032 39.94024789 -30.02734375 38.28515625 C-27.6092705 34.83008989 -25.18382612 31.38033776 -22.75390625 27.93359375 C-14.48805612 16.21151314 -14.48805612 16.21151314 -6.734375 4.1484375 C-4.60823379 0.87848615 -4.03643026 0.28831645 0 0 Z " fill="#C9CBCB" transform="translate(170.5,-0.25)"/>
<path d="M0 0 C52.8 0 105.6 0 160 0 C159.34 1.32 158.68 2.64 158 4 C157.52833153 4.97935139 157.05666306 5.95870277 156.5707016 6.96773148 C151.91928581 15.33009667 151.91928581 15.33009667 146.87348938 17.09127045 C142.99414786 17.47785642 139.20956654 17.48741802 135.32226562 17.36230469 C133.84327472 17.35891543 132.36426365 17.36082838 130.88528442 17.36761475 C126.88822827 17.37104543 122.89553092 17.30072884 118.89948463 17.21672726 C114.71703087 17.14148665 110.53446653 17.13464545 106.35144043 17.12042236 C98.43882011 17.08318822 90.5281997 16.98480908 82.61645842 16.86422849 C73.60584509 16.72989447 64.59513398 16.66407069 55.58376789 16.60388327 C37.05468169 16.47859744 18.52757523 16.26522952 0 16 C0 10.72 0 5.44 0 0 Z " fill="#109485" transform="translate(0,10)"/>
<path d="M0 0 C3.30010622 1.89680291 5.61164864 3.67138315 6.99072266 7.30224609 C8.17927196 12.95339563 8.23166756 18.73471132 6.1875 24.1875 C2.9955188 28.54565921 -1.69191976 30.75850086 -6.8125 32.1875 C-12.81430415 31.88477742 -17.57386055 30.26225076 -22.55859375 26.94140625 C-26.6844653 21.90026337 -26.63234011 16.00766871 -26.04296875 9.703125 C-25.23760979 5.52313226 -23.85552218 3.43376718 -20.3828125 1.00561523 C-12.69254316 -3.39385968 -7.94376607 -3.94959413 0 0 Z " fill="#1975D1" transform="translate(149.8125,94.8125)"/>
<path d="M0 0 C9.9 0 19.8 0 30 0 C30 3.63 30 7.26 30 11 C20.1 11 10.2 11 0 11 C0 7.37 0 3.74 0 0 Z " fill="#39E4D2" transform="translate(12,135)"/>
<path d="M0 0 C9.9 0 19.8 0 30 0 C30 3.63 30 7.26 30 11 C20.1 11 10.2 11 0 11 C0 7.37 0 3.74 0 0 Z " fill="#39E4D2" transform="translate(12,115)"/>
<path d="M0 0 C9.9 0 19.8 0 30 0 C30 3.63 30 7.26 30 11 C20.1 11 10.2 11 0 11 C0 7.37 0 3.74 0 0 Z " fill="#39E4D2" transform="translate(62,95)"/>
<path d="M0 0 C9.9 0 19.8 0 30 0 C30 3.63 30 7.26 30 11 C20.1 11 10.2 11 0 11 C0 7.37 0 3.74 0 0 Z " fill="#39E4D2" transform="translate(12,95)"/>
<path d="M0 0 C9.9 0 19.8 0 30 0 C30 3.63 30 7.26 30 11 C20.1 11 10.2 11 0 11 C0 7.37 0 3.74 0 0 Z " fill="#39E4D2" transform="translate(62,75)"/>
<path d="M0 0 C9.9 0 19.8 0 30 0 C30 3.63 30 7.26 30 11 C20.1 11 10.2 11 0 11 C0 7.37 0 3.74 0 0 Z " fill="#39E4D2" transform="translate(12,75)"/>
<path d="M0 0 C9.9 0 19.8 0 30 0 C30 3.63 30 7.26 30 11 C20.1 11 10.2 11 0 11 C0 7.37 0 3.74 0 0 Z " fill="#39E4D2" transform="translate(62,55)"/>
<path d="M0 0 C9.9 0 19.8 0 30 0 C30 3.63 30 7.26 30 11 C20.1 11 10.2 11 0 11 C0 7.37 0 3.74 0 0 Z " fill="#39E4D2" transform="translate(12,55)"/>
<path d="M0 0 C9.9 0 19.8 0 30 0 C30 3.63 30 7.26 30 11 C20.1 11 10.2 11 0 11 C0 7.37 0 3.74 0 0 Z " fill="#39E4D2" transform="translate(62,35)"/>
<path d="M0 0 C9.9 0 19.8 0 30 0 C30 3.63 30 7.26 30 11 C20.1 11 10.2 11 0 11 C0 7.37 0 3.74 0 0 Z " fill="#39E4D2" transform="translate(12,35)"/>
<path d="M0 0 C10.23 0 20.46 0 31 0 C28.69 3.63 26.38 7.26 24 11 C19.22524497 11.86442241 16.23216279 12.08379779 11.5625 11.6875 C9.8928418 11.61305664 9.8928418 11.61305664 8.18945312 11.53710938 C5.45681419 11.40810067 2.72754919 11.2107942 0 11 C0 7.37 0 3.74 0 0 Z " fill="#3AE4D2" transform="translate(112,35)"/>
<path d="M0 0 C8.25 0 16.5 0 25 0 C21.65284974 7.75129534 21.65284974 7.75129534 18 11 C12.15249228 12.45201088 5.92204129 11.62040433 0 11 C0 7.37 0 3.74 0 0 Z " fill="#3AE4D2" transform="translate(62,115)"/>
<path d="M0 0 C5.61 0 11.22 0 17 0 C12.94818653 7.75129534 12.94818653 7.75129534 10 11 C6.25057391 12.01762363 3.92674028 11.59170059 0 11 C0 7.37 0 3.74 0 0 Z " fill="#3BE4D2" transform="translate(112,55)"/>
<path d="M0 0 C3.63 0 7.26 0 11 0 C5.66634615 8.80673077 5.66634615 8.80673077 2.29296875 9.78515625 C1.53628906 9.85605469 0.77960937 9.92695313 0 10 C0 6.7 0 3.4 0 0 Z " fill="#3DE4D3" transform="translate(62,135)"/>
</svg>
